{"title":"The Incredible Hulk(2008)BDRip 1080p[Hindi-Eng-Tamil]6CH-AC3 By ","uid":6900903,"size":3335258476,"categoryP":"video","categoryS":"hd___movies","magnet":"?xt=urn:btih:0b2c369b2f4391760cf9b75007b8ef5cf7a7d4b4&amp;dn=The+Incredible+Hulk%282008%29BDRip+1080p%5BHindi-Eng-Tamil%5D6CH-AC3+By+&amp;tr=udp%3A%2F%2Ftracker.openbittorrent.com%3A80&amp;tr=udp%3A%2F%2Fopen.demonii.com%3A1337&amp;tr=udp%3A%2F%2Ftracker.coppersurfer.tk%3A6969&amp;tr=udp%3A%2F%2Fexodus.desync.com%3A6969","seeders":0,"leechers":1,"uploader":"dipty","files":-1,"time":1324341262,"description":"                    =!DK GROUP HD BLURAY RELEAESEES!=\n \n===================================================================================\n\n\n               \t\n   The Incredible Hulk(2008)BDRip 1080p In[Hindi-Eng-Tamil]6CH-AC3 By !!!dip\n\n\n===================================================================================\n\nStoryline:\n\nDepicting the events after the Gamma Bomb. 'The Incredible Hulk' tells the story of Dr Bruce Banner, who seeks a cure to his unique condition, which causes him to turn into a giant green monster under emotional stress. Whilst on the run from military which seeks his capture, Banner comes close to a cure. But all is lost when a new creature emerges; The Abomination. Written by Graham Kroon  \n\nCast:\n\n\nEdward Norton\t ...\tBruce Banner\nLiv Tyler\t ...\tBetty Ross\nTim Roth\t ...\tEmil Blonsky\nWilliam Hurt\t ...\tGeneral 'Thunderbolt' Ross\nTim Blake Nelson ...\tSamuel Sterns\nTy Burrell\t ...\tLeonard\nChristina Cabot\t ...\tMajor Kathleen Sparr\nPeter Mensah\t ...\tGeneral Joe Greller\nLou Ferrigno\t ...\tThe Incredible Hulk / Security Guard (voice)\nPaul Soles\t ...\tStanley\nDÃƒÂ©bora Nascimento...\tMartina\nGreg Bryk\t ...\tCommando\nChris Owens\t ...\tCommando\nAl Vrkljan\t ...\tCommando (as Alan Vrkljan)\nAdrian Hein\t ...\tCommando\n\n\nDirectors :Louis Leterrier\nWriters :Zak Penn (screenplay), Zak Penn (screen story)\nStars: Edward Norton, Liv Tyler and Tim Roth\nGenre: Action | Adventure | Comedy\nLanguage:[English-Hindi-Tamil]\nFormat :Color, Dubbed,Widescreen\nRelease Date: 20 June 2008 (India)\nSUBTITLE:ENGLISH\nEncoder:Deep Shikha\n\n\n\n\n\nVideo Specifications:\n\n\nVideo\nID : 1\nFormat : AVC\nFormat/Info : Advanced Video Codec\nFormat profile : &lt;a class=&quot;__cf_email__&quot; href=&quot;/cdn-cgi/l/email-protection&quot; data-cfemail=&quot;074f6e606f474b332936&quot;&gt;[email&amp;#160;protected]&lt;/a&gt;&lt;script cf-hash='f9e31' type=&quot;text/javascript&quot;&gt;\n/* &lt;![CDATA[ */!function(){try{var t=&quot;currentScript&quot;in document?document.currentScript:function(){for(var t=document.getElementsByTagName(&quot;script&quot;),e=t.length;e--;)if(t[e].getAttribute(&quot;cf-hash&quot;))return t[e]}();if(t&amp;&amp;t.previousSibling){var e,r,n,i,c=t.previousSibling,a=c.getAttribute(&quot;data-cfemail&quot;);if(a){for(e=&quot;&quot;,r=parseInt(a.substr(0,2),16),n=2;a.length-n;n+=2)i=parseInt(a.substr(n,2),16)^r,e+=String.fromCharCode(i);e=document.createTextNode(e),c.parentNode.replaceChild(e,c)}}}catch(u){}}();/* ]]&gt; */&lt;/script&gt;\nFormat settings, CABAC : Yes\nFormat settings, ReFrames : 3 frames\nMuxing mode : Header stripping\nCodec ID : V_MPEG4/ISO/AVC\nDuration : 1h 47mn\nBit rate mode : Variable\nNominal bit rate : 3 000 Kbps\nMaximum bit rate : 62.5 Mbps\nWidth : 1 920 pixels\nHeight : 818 pixels\nDisplay aspect ratio : 2.35:1\nFrame rate : 25.000 fps\nOriginal frame rate : 23.976 fps\nColor space : YUV\nChroma subsampling : 4:2:0\nBit depth : 8 bits\nScan type : Progressive\nBits/(Pixel*Frame) : 0.076\nTitle : !!!dip\nTeam : DK Group HD Bluray Releases\n\n\n\n\nAudio Specifications:\n\n\nAudio #1\nID : 2\nFormat : AAC\nFormat/Info : Advanced Audio Codec\nFormat profile : LC\nCodec ID : A_AAC\nDuration : 1h 47mn\nChannel(s) : 6 channels\nChannel positions : Front: L C R, Side: L R, LFE\nSampling rate : 48.0 KHz\nCompression mode : Lossy\nTitle : !!!dip\nLanguage : English\n\nAudio #2\nID : 3\nFormat : AC-3\nFormat/Info : Audio Coding 3\nMode extension : CM (complete main)\nMuxing mode : Header stripping\nCodec ID : A_AC3\nDuration : 1h 47mn\nBit rate mode : Constant\nBit rate : 448 Kbps\nChannel(s) : 6 channels\nChannel positions : Front: L C R, Side: L R, LFE\nSampling rate : 48.0 KHz\nBit depth : 16 bits\nCompression mode : Lossy\nDelay relative to video : 2s 200ms\nStream size : 345 MiB (11%)\nTitle : !!!dip\nLanguage : Hindi\n\nAudio #3\nID : 4\nFormat : AC-3\nFormat/Info : Audio Coding 3\nMode extension : CM (complete main)\nMuxing mode : Header stripping\nCodec ID : A_AC3\nDuration : 1h 47mn\nBit rate mode : Constant\nBit rate : 192 Kbps\nChannel(s) : 2 channels\nChannel positions : Front: L R\nSampling rate : 48.0 KHz\nBit depth : 16 bits\nCompression mode : Lossy\nDelay relative to video : 2s 200ms\nStream size : 148 MiB (5%)\nTitle : !!!dip\nLanguage : Tamil\n\nText\nID : 5\nFormat : UTF-8\nCodec ID : S_TEXT/UTF8\nCodec ID/Info : UTF-8 Plain Text\nTitle : !!!dip\nLanguage : English\n\n\nSAMPLE IMAGE:\n    &lt;a href=&quot;\nhttp://imagestorage.org/images/87487034690222355990.jpg&quot; rel=&quot;nofollow&quot; target=&quot;_NEW&quot;&gt;\nhttp://imagestorage.org/images/87487034690222355990.jpg&lt;/a&gt;\n &lt;a href=&quot;\nhttp://imagestorage.org/images/21994869330972688842.jpg&quot; rel=&quot;nofollow&quot; target=&quot;_NEW&quot;&gt;\nhttp://imagestorage.org/images/21994869330972688842.jpg&lt;/a&gt;\n &lt;a href=&quot;\nhttp://imagestorage.org/images/09983973465722736198.jpg&quot; rel=&quot;nofollow&quot; target=&quot;_NEW&quot;&gt;\nhttp://imagestorage.org/images/09983973465722736198.jpg&lt;/a&gt;\n &lt;a href=&quot;\nhttp://imagestorage.org/images/07938978663960714889.jpg&quot; rel=&quot;nofollow&quot; target=&quot;_NEW&quot;&gt;\nhttp://imagestorage.org/images/07938978663960714889.jpg&lt;/a&gt;\n &lt;a href=&quot;\nhttp://imagestorage.org/images/78760622436215699884.jpg&quot; rel=&quot;nofollow&quot; target=&quot;_NEW&quot;&gt;\nhttp://imagestorage.org/images/78760622436215699884.jpg&lt;/a&gt;\n &lt;a href=&quot;\nhttp://imagestorage.org/images/79603925475268059851.jpg&quot; rel=&quot;nofollow&quot; target=&quot;_NEW&quot;&gt;\nhttp://imagestorage.org/images/79603925475268059851.jpg&lt;/a&gt;\n\n\nVIDEO SAMPLE IS AVAILABLE\n","torrent":{"xt":"urn:btih:0b2c369b2f4391760cf9b75007b8ef5cf7a7d4b4","amp;dn":"The+Incredible+Hulk%282008%29BDRip+1080p%5BHindi-Eng-Tamil%5D6CH-AC3+By+","amp;tr":["udp%3A%2F%2Ftracker.openbittorrent.com%3A80","udp%3A%2F%2Fopen.demonii.com%3A1337","udp%3A%2F%2Ftracker.coppersurfer.tk%3A6969","udp%3A%2F%2Fexodus.desync.com%3A6969"],"infoHash":"0b2c369b2f4391760cf9b75007b8ef5cf7a7d4b4","infoHashBuffer":{"type":"Buffer","data":[11,44,54,155,47,67,145,118,12,249,183,80,7,184,239,92,247,167,212,180]},"announce":[],"urlList":[]}}